<svg width="402" height="184" viewBox="0 0 402 184" fill="none" xmlns="http://www.w3.org/2000/svg">
<rect width="402" height="184" fill="#E0F1FF"/>
<mask id="mask0_368_685" style="mask-type:alpha" maskUnits="userSpaceOnUse" x="5" y="8" width="375" height="176">
<path d="M5.34424 8H380V183.848H5.34424V8Z" fill="#D9D9D9"/>
</mask>
<g mask="url(#mask0_368_685)">
<g filter="url(#filter0_f_368_685)">
<path d="M273.335 55.4451C262.244 26.7309 234.265 33.3309 220.835 37.4141L200.542 43.0536C190.966 41.0739 176.628 38.2902 174.192 54.9363C171.147 75.7439 188.468 76.4924 188.86 89.7685C189.202 101.346 188.017 103.212 188.828 126.577L190.16 199.639L225.719 193.948L293.035 174.564L282.462 152.007C274.339 143.019 263.799 139.426 264.135 126.577C264.554 110.516 287.199 91.3379 273.335 55.4451Z" fill="black"/>
<ellipse cx="219.806" cy="49.7444" rx="1.56541" ry="2.60902" fill="#FFD817"/>
<ellipse cx="226.589" cy="48.179" rx="1.56541" ry="2.60902" fill="#FFD817"/>
<path d="M34.5095 78.9834C25.2738 109.852 49.6477 104.215 65.0868 107.345L81.1611 111.471C88.6494 115.758 93.2866 130.05 94.4161 145.271C95.6641 162.09 84.8476 179.239 77.2553 187.154H152.763C147.458 174.292 137.599 144.281 140.594 127.132C144.338 105.696 173.98 97.4515 178.348 74.3664C181.842 55.8982 177.564 34.63 172.884 25.7257C170.388 19.4597 161.249 11.7726 149.018 15.9939C136.788 20.2152 135.81 36.8805 136.85 44.6854C136.226 56.1181 132.544 78.9834 122.809 78.9834C113.074 78.9834 99.8243 70.8486 94.4161 66.7812C78.2954 57.9869 43.7451 48.1152 34.5095 78.9834Z" fill="#0B70FE"/>
<ellipse cx="150.419" cy="78.4918" rx="1.87208" ry="2.30852" fill="black"/>
<ellipse cx="142.931" cy="85.7472" rx="1.87208" ry="2.30852" fill="black"/>
<ellipse cx="140.003" cy="121.094" rx="1.05529" ry="1.89461" fill="#FFD817"/>
<path d="M271.88 113.937C268.513 134.465 286.451 173.62 295.841 190.632H347.648C338.366 168.108 318.248 119.753 312.031 106.524C305.825 93.3183 317.494 76.8359 322.688 69.4985L322.716 69.4596C326.925 62.3318 331.264 44.5979 314.945 30.6845C294.546 13.2927 298.755 35.8165 290.013 39.808C281.27 43.7996 274.794 55.7742 283.537 64.3276C292.279 72.8809 276.089 88.2769 271.88 113.937Z" fill="#FF0084"/>
<ellipse cx="286.597" cy="49.3176" rx="1.56541" ry="1.49065" fill="#1EFF00"/>
<ellipse cx="291.815" cy="49.3176" rx="1.56541" ry="1.49065" fill="#1EFF00"/>
<path d="M235.574 189.668C233.849 202.493 222.604 219.145 217.197 225.867L278.599 221.393C283.665 215.433 295.903 198.881 304.325 180.352C314.851 157.191 294.296 152.114 291.971 151.678C289.647 151.242 285.899 140.433 298.846 120.946C311.793 101.46 244.581 85.5952 253.182 113.158C253.881 115.399 223.426 123.976 221.636 153.255C219.846 182.534 237.729 173.636 235.574 189.668Z" fill="#1EFF00"/>
<ellipse cx="249.115" cy="126.81" rx="1.76002" ry="3.22671" transform="rotate(3.49849 249.115 126.81)" fill="#FF0084"/>
<ellipse cx="256.709" cy="127.568" rx="1.76002" ry="2.93337" transform="rotate(3.49849 256.709 127.568)" fill="#FF0084"/>
<path d="M88.8802 121.972C65.0656 128.92 35.7402 168.968 24.0544 188.123C52.2676 187.831 108.14 187.134 105.925 186.684C103.71 186.234 106.465 178.57 108.119 174.794C111.976 166.754 121.554 153.915 129.009 166.875C136.464 179.834 157.018 181.96 166.363 181.403C173.661 181.059 186.779 175.101 180.869 154.026C174.959 132.952 149.921 122.325 138.141 119.645C131.643 117.526 112.695 115.023 88.8802 121.972Z" fill="#FFD817"/>
<ellipse cx="162.092" cy="167.774" rx="2.05477" ry="3.46273" fill="black"/>
<ellipse cx="170.311" cy="167.774" rx="2.05477" ry="3.46273" fill="black"/>
</g>
</g>
<defs>
<filter id="filter0_f_368_685" x="17.0543" y="7.78347" width="337.594" height="225.084" filterUnits="userSpaceOnUse" color-interpolation-filters="sRGB">
<feFlood flood-opacity="0" result="BackgroundImageFix"/>
<feBlend mode="normal" in="SourceGraphic" in2="BackgroundImageFix" result="shape"/>
<feGaussianBlur stdDeviation="3.5" result="effect1_foregroundBlur_368_685"/>
</filter>
</defs>
</svg>
