<svg width="36" height="36" viewBox="0 0 36 36" fill="none" xmlns="http://www.w3.org/2000/svg">
<mask id="mask0_3_1247" style="mask-type:alpha" maskUnits="userSpaceOnUse" x="0" y="0" width="36" height="36">
<rect width="36" height="36" fill="#D9D9D9"/>
</mask>
<g mask="url(#mask0_3_1247)">
<path d="M9 21C9 22.3 9.2625 23.5312 9.7875 24.6937C10.3125 25.8562 11.0625 26.875 12.0375 27.75C12.0125 27.625 12 27.5125 12 27.4125V27.075C12 26.275 12.15 25.525 12.45 24.825C12.75 24.125 13.1875 23.4875 13.7625 22.9125L18 18.75L22.2375 22.9125C22.8125 23.4875 23.25 24.125 23.55 24.825C23.85 25.525 24 26.275 24 27.075V27.4125C24 27.5125 23.9875 27.625 23.9625 27.75C24.9375 26.875 25.6875 25.8562 26.2125 24.6937C26.7375 23.5312 27 22.3 27 21C27 19.75 26.7688 18.5687 26.3063 17.4562C25.8438 16.3437 25.175 15.35 24.3 14.475C23.8 14.8 23.275 15.0437 22.725 15.2062C22.175 15.3687 21.6125 15.45 21.0375 15.45C19.4875 15.45 18.1438 14.9375 17.0063 13.9125C15.8688 12.8875 15.2125 11.625 15.0375 10.125C14.0625 10.95 13.2 11.8062 12.45 12.6937C11.7 13.5812 11.0687 14.4812 10.5563 15.3937C10.0438 16.3062 9.65625 17.2375 9.39375 18.1875C9.13125 19.1375 9 20.075 9 21ZM18 22.95L15.8625 25.05C15.5875 25.325 15.375 25.6375 15.225 25.9875C15.075 26.3375 15 26.7 15 27.075C15 27.875 15.2938 28.5625 15.8813 29.1375C16.4688 29.7125 17.175 30 18 30C18.825 30 19.5313 29.7125 20.1188 29.1375C20.7063 28.5625 21 27.875 21 27.075C21 26.675 20.925 26.3062 20.775 25.9687C20.625 25.6312 20.4125 25.325 20.1375 25.05L18 22.95ZM18 4.5V9.45C18 10.3 18.2938 11.0125 18.8813 11.5875C19.4688 12.1625 20.1875 12.45 21.0375 12.45C21.4875 12.45 21.9063 12.3562 22.2938 12.1687C22.6813 11.9812 23.025 11.7 23.325 11.325L24 10.5C25.85 11.55 27.3125 13.0125 28.3875 14.8875C29.4625 16.7625 30 18.8 30 21C30 24.35 28.8375 27.1875 26.5125 29.5125C24.1875 31.8375 21.35 33 18 33C14.65 33 11.8125 31.8375 9.4875 29.5125C7.1625 27.1875 6 24.35 6 21C6 17.775 7.08125 14.7125 9.24375 11.8125C11.4062 8.9125 14.325 6.475 18 4.5Z" fill="#358FFF"/>
</g>
</svg>
