<svg width="98" height="114" viewBox="0 0 98 114" fill="none" xmlns="http://www.w3.org/2000/svg">
<rect x="0.0632324" y="0.634766" width="112.73" height="112.73" rx="12" fill="#0B70FE"/>
<path d="M52.6949 20.8674C65.3136 20.8675 76.1627 29.7261 80.9527 42.4182C78.2715 40.6119 75.1339 39.5725 71.7798 39.5724C69.1862 39.5725 66.722 40.1935 64.4986 41.3107C60.6414 34.5649 54.3633 30.1741 47.272 30.174C35.5427 30.174 26.0338 42.1846 26.0338 57.0002C26.0338 71.8158 35.5427 83.8264 47.272 83.8264C52.9671 83.8263 58.1371 80.9934 61.9507 76.384C64.77 78.4754 68.1484 79.6925 71.7798 79.6926C73.7432 79.6925 75.632 79.3353 77.399 78.6779C71.7656 87.4552 62.7974 93.1339 52.6949 93.134C35.6416 93.134 21.817 76.9559 21.817 57.0002C21.8171 37.0447 35.6417 20.8674 52.6949 20.8674ZM80.9527 42.4182C86.1562 45.9237 89.6391 52.3206 89.6392 59.632C89.6392 68.5057 84.5092 76.0325 77.399 78.6779C81.2748 72.6391 83.5728 65.1338 83.5728 57.0002C83.5728 51.8112 82.6359 46.8782 80.9527 42.4182ZM64.4986 41.3107C67.0214 45.7228 68.5093 51.1419 68.5093 57.0002C68.5093 64.622 65.9914 71.5002 61.9507 76.384C60.4746 75.2889 59.1517 73.9538 58.0259 72.4289C62.656 70.0812 65.8658 64.9651 65.8658 59.0314C65.8656 53.3844 62.958 48.4788 58.6861 45.9943C60.3127 44.0249 62.2866 42.4222 64.4986 41.3107ZM52.3199 44.2639C54.6212 44.2639 56.7881 44.8905 58.6861 45.9943C55.7299 49.5735 53.9206 54.3648 53.9205 59.632C53.9205 64.4961 55.462 68.956 58.0259 72.4289C56.2918 73.3082 54.3585 73.8 52.3199 73.8C44.8387 73.7999 38.774 67.1875 38.774 59.0314C38.7742 50.8756 44.8388 44.264 52.3199 44.2639ZM46.6558 24.7043C45.997 24.7043 45.4626 25.3947 45.4625 26.2463C45.4625 27.098 45.9969 27.7883 46.6558 27.7883C47.3145 27.7879 47.8482 27.0978 47.8482 26.2463C47.8481 25.3949 47.3144 24.7046 46.6558 24.7043ZM51.5015 24.7043C50.8427 24.7043 50.3083 25.3947 50.3082 26.2463C50.3082 27.098 50.8426 27.7883 51.5015 27.7883C52.1603 27.7882 52.6949 27.0979 52.6949 26.2463C52.6948 25.3947 52.1603 24.7044 51.5015 24.7043Z" fill="white"/>
<path d="M38.175 104.446C38.175 108.181 35.8313 110.259 32.8 110.259C29.7532 110.259 27.425 108.165 27.425 104.446C27.425 100.712 29.7532 98.6339 32.8 98.6339C35.8313 98.6339 38.175 100.712 38.175 104.446ZM35.4563 104.446C35.4563 102.196 34.4563 100.978 32.8 100.978C31.1438 100.978 30.1438 102.196 30.1438 104.446C30.1438 106.696 31.1438 107.915 32.8 107.915C34.4563 107.915 35.4563 106.696 35.4563 104.446ZM43.675 110.259C41.0188 110.259 39.4094 108.493 39.4094 105.884C39.4094 103.275 41.0188 101.509 43.675 101.509C46.3313 101.509 47.9407 103.275 47.9407 105.884C47.9407 108.493 46.3313 110.259 43.675 110.259ZM43.6907 108.275C44.6907 108.275 45.2532 107.29 45.2532 105.868C45.2532 104.446 44.6907 103.462 43.6907 103.462C42.6594 103.462 42.0969 104.446 42.0969 105.868C42.0969 107.29 42.6594 108.275 43.6907 108.275ZM49.3 113.29V101.618H51.9094V103.071H52.0032C52.3157 102.306 53.05 101.509 54.3938 101.509C56.1907 101.509 57.7844 102.884 57.7844 105.868C57.7844 108.743 56.2688 110.228 54.3938 110.228C53.0813 110.228 52.3313 109.493 52.0032 108.728H51.9407V113.29H49.3ZM51.8782 105.853C51.8782 107.259 52.4719 108.165 53.4875 108.165C54.5188 108.165 55.0813 107.259 55.0813 105.853C55.0813 104.478 54.5188 103.571 53.4875 103.571C52.4719 103.571 51.8782 104.446 51.8782 105.853ZM64.0657 104.243C63.9875 103.681 63.4875 103.321 62.7844 103.321C62.1282 103.321 61.6125 103.618 61.6282 104.056C61.6125 104.384 61.8625 104.65 62.5969 104.79L64.2063 105.103C65.8938 105.431 66.7063 106.165 66.7219 107.4C66.7063 109.134 65.1125 110.259 62.8157 110.259C60.3938 110.259 58.9719 109.181 58.8 107.493H61.425C61.5188 108.103 62.05 108.431 62.8313 108.431C63.55 108.431 64.0344 108.15 64.05 107.681C64.0344 107.306 63.7063 107.071 62.9719 106.915L61.5188 106.65C59.8469 106.337 59.0032 105.493 59.0188 104.196C59.0032 102.509 60.4407 101.509 62.7375 101.509C65.0188 101.509 66.4094 102.556 66.5188 104.243H64.0657ZM68.0188 110.103V101.618H70.6594V110.103H68.0188ZM69.3469 100.603C68.5969 100.603 67.9875 100.04 67.9875 99.337C67.9875 98.6339 68.5969 98.0714 69.3469 98.0714C70.0969 98.0714 70.7219 98.6339 70.7219 99.337C70.7219 100.04 70.0969 100.603 69.3469 100.603ZM76.3 110.259C73.6438 110.259 72.0188 108.603 72.0188 105.9C72.0188 103.275 73.6594 101.509 76.2063 101.509C78.5813 101.509 80.3 103.025 80.3 105.837V106.509H74.6125V106.556C74.6125 107.65 75.2844 108.353 76.3469 108.353C77.0657 108.353 77.5969 108.04 77.8157 107.54H80.2688C79.9563 109.196 78.5032 110.259 76.3 110.259ZM74.6125 104.962H77.8469C77.8313 104.056 77.175 103.415 76.2688 103.415C75.3313 103.415 74.6516 104.079 74.6125 104.962Z" fill="white"/>
</svg>
