<svg width="94" height="40" viewBox="0 0 94 40" fill="none" xmlns="http://www.w3.org/2000/svg">
<path d="M51.125 25.2725C51.125 28.54 49.0742 30.3584 46.4219 30.3584C43.7559 30.3584 41.7188 28.5264 41.7188 25.2725C41.7188 22.0049 43.7559 20.1865 46.4219 20.1865C49.0742 20.1865 51.125 22.0049 51.125 25.2725ZM48.7461 25.2725C48.7461 23.3037 47.8711 22.2373 46.4219 22.2373C44.9727 22.2373 44.0977 23.3037 44.0977 25.2725C44.0977 27.2412 44.9727 28.3076 46.4219 28.3076C47.8711 28.3076 48.7461 27.2412 48.7461 25.2725ZM55.9375 30.3584C53.6133 30.3584 52.2051 28.8135 52.2051 26.5303C52.2051 24.2471 53.6133 22.7021 55.9375 22.7021C58.2617 22.7021 59.6699 24.2471 59.6699 26.5303C59.6699 28.8135 58.2617 30.3584 55.9375 30.3584ZM55.9512 28.6221C56.8262 28.6221 57.3184 27.7607 57.3184 26.5166C57.3184 25.2725 56.8262 24.4111 55.9512 24.4111C55.0488 24.4111 54.5566 25.2725 54.5566 26.5166C54.5566 27.7607 55.0488 28.6221 55.9512 28.6221ZM60.8594 33.0107V22.7979H63.1426V24.0693H63.2246C63.498 23.3994 64.1406 22.7021 65.3164 22.7021C66.8887 22.7021 68.2832 23.9053 68.2832 26.5166C68.2832 29.0322 66.957 30.3311 65.3164 30.3311C64.168 30.3311 63.5117 29.6885 63.2246 29.0186H63.1699V33.0107H60.8594ZM63.1152 26.5029C63.1152 27.7334 63.6348 28.5264 64.5234 28.5264C65.4258 28.5264 65.918 27.7334 65.918 26.5029C65.918 25.2998 65.4258 24.5068 64.5234 24.5068C63.6348 24.5068 63.1152 25.2725 63.1152 26.5029ZM73.7793 25.0947C73.7109 24.6025 73.2734 24.2881 72.6582 24.2881C72.084 24.2881 71.6328 24.5479 71.6465 24.9307C71.6328 25.2178 71.8516 25.4502 72.4941 25.5732L73.9023 25.8467C75.3789 26.1338 76.0898 26.7764 76.1035 27.8564C76.0898 29.374 74.6953 30.3584 72.6855 30.3584C70.5664 30.3584 69.3223 29.415 69.1719 27.9385H71.4688C71.5508 28.4717 72.0156 28.7588 72.6992 28.7588C73.3281 28.7588 73.752 28.5127 73.7656 28.1025C73.752 27.7744 73.4648 27.5693 72.8223 27.4326L71.5508 27.2002C70.0879 26.9268 69.3496 26.1885 69.3633 25.0537C69.3496 23.5771 70.6074 22.7021 72.6172 22.7021C74.6133 22.7021 75.8301 23.6182 75.9258 25.0947H73.7793ZM77.2383 30.2217V22.7979H79.5488V30.2217H77.2383ZM78.4004 21.9092C77.7441 21.9092 77.2109 21.417 77.2109 20.8018C77.2109 20.1865 77.7441 19.6943 78.4004 19.6943C79.0566 19.6943 79.6035 20.1865 79.6035 20.8018C79.6035 21.417 79.0566 21.9092 78.4004 21.9092ZM84.4844 30.3584C82.1602 30.3584 80.7383 28.9092 80.7383 26.5439C80.7383 24.2471 82.1738 22.7021 84.4023 22.7021C86.4805 22.7021 87.9844 24.0283 87.9844 26.4893V27.0771H83.0078V27.1182C83.0078 28.0752 83.5957 28.6904 84.5254 28.6904C85.1543 28.6904 85.6191 28.417 85.8105 27.9795H87.957C87.6836 29.4287 86.4121 30.3584 84.4844 30.3584ZM83.0078 25.7236H85.8379C85.8242 24.9307 85.25 24.3701 84.457 24.3701C83.6367 24.3701 83.042 24.9512 83.0078 25.7236Z" fill="#0B70FE"/>
<path d="M17.7905 0.443359C24.6978 0.443403 30.6363 5.29269 33.2583 12.2402C31.7908 11.2515 30.0737 10.6817 28.2378 10.6816C26.8172 10.6817 25.468 11.0232 24.2505 11.6357C22.1391 7.94297 18.7045 5.53823 14.8228 5.53809C8.40242 5.53809 3.19775 12.112 3.19775 20.2217C3.19783 28.3313 8.40247 34.9053 14.8228 34.9053C17.9399 34.9052 20.7675 33.3528 22.855 30.8301C24.3987 31.9759 26.2491 32.6426 28.2378 32.6426C29.3133 32.6425 30.3471 32.4444 31.3149 32.084C28.2314 36.8901 23.3216 40 17.7905 40C8.45616 39.9998 0.8892 31.1448 0.88916 20.2217C0.889244 9.29862 8.45618 0.443544 17.7905 0.443359ZM33.2583 12.2402C36.1064 14.1592 38.0131 17.6601 38.0132 21.6621C38.0132 26.5182 35.2055 30.6351 31.3149 32.084C33.4353 28.7791 34.6929 24.6724 34.6929 20.2217C34.6928 17.3815 34.1796 14.6815 33.2583 12.2402ZM24.2505 11.6357C25.6312 14.0506 26.4478 17.0153 26.4478 20.2217C26.4477 24.3938 25.067 28.1569 22.855 30.8301C22.0477 30.2308 21.3242 29.5001 20.7085 28.666C23.2428 27.3809 25.0005 24.5809 25.0005 21.333C25.0003 18.2426 23.4085 15.5583 21.0708 14.1982C21.9606 13.1208 23.0407 12.2444 24.2505 11.6357ZM17.5854 13.25C18.8455 13.25 20.0317 13.5937 21.0708 14.1982C19.4529 16.1573 18.4615 18.7792 18.4614 21.6621C18.4614 24.3243 19.3054 26.7652 20.7085 28.666C19.7592 29.1473 18.7013 29.417 17.5854 29.417C13.4904 29.4169 10.1704 25.7974 10.1704 21.333C10.1706 16.8688 13.4906 13.2501 17.5854 13.25ZM14.4858 2.54395C14.1253 2.54395 13.8327 2.92169 13.8325 3.3877C13.8327 3.85374 14.1253 4.23242 14.4858 4.23242C14.846 4.23188 15.138 3.85341 15.1382 3.3877C15.138 2.92202 14.846 2.54448 14.4858 2.54395ZM17.1382 2.54395C16.7776 2.54398 16.485 2.92165 16.4849 3.3877C16.485 3.85372 16.7777 4.23239 17.1382 4.23242C17.4985 4.2321 17.7913 3.85354 17.7915 3.3877C17.7914 2.92183 17.4985 2.54426 17.1382 2.54395Z" fill="#0B70FE"/>
</svg>
