<svg width="402" height="661" viewBox="0 0 402 661" fill="none" xmlns="http://www.w3.org/2000/svg">
<path d="M-12.8587 126.117C-31.6878 186.756 18.0045 175.684 49.4809 181.832L82.2524 189.937C97.5192 198.359 106.973 226.434 109.276 256.335C111.82 289.375 89.7684 323.064 74.2895 338.612H228.23C217.416 313.346 197.315 254.392 203.421 220.703C211.055 178.593 271.486 162.397 280.392 117.047C287.516 80.7677 278.795 38.9874 269.253 21.4954C264.164 9.18626 245.532 -5.91473 220.597 2.37775C195.661 10.6702 193.668 43.4083 195.788 58.7407C194.516 81.1995 187.01 126.117 167.163 126.117C147.316 126.117 120.302 110.137 109.276 102.147C76.4099 84.8707 5.97041 65.4784 -12.8587 126.117Z" fill="#0B70FE"/>
<ellipse cx="223.453" cy="125.152" rx="3.81671" ry="4.53495" fill="black"/>
<ellipse cx="208.186" cy="139.404" rx="3.81671" ry="4.53495" fill="black"/>
<path d="M194.417 456.702C182.925 530.274 244.145 670.606 276.191 731.575H453C421.322 650.85 352.661 477.547 331.444 430.134C310.265 382.805 350.088 323.733 367.817 297.436L367.911 297.296C382.277 271.75 397.084 208.192 341.39 158.326C271.771 95.9946 286.137 176.719 256.3 191.025C226.464 205.331 204.363 248.248 234.199 278.903C264.036 309.558 208.783 364.737 194.417 456.702Z" fill="#FF0084"/>
<circle cx="253.548" cy="240.068" r="5.34247" fill="#1EFF00"/>
<circle cx="271.356" cy="240.068" r="5.34247" fill="#1EFF00"/>
<path d="M216.381 297.707C191.628 233.625 129.187 248.354 99.2154 257.467L53.9264 270.053C32.5556 265.635 0.556298 259.422 -4.88043 296.572C-11.6763 343.009 26.9811 344.679 27.8562 374.308C28.6194 400.146 25.9729 404.309 27.7831 456.455L30.757 619.508L110.114 606.809L260.347 563.548L236.75 513.208C218.621 493.149 195.1 485.131 195.849 456.455C196.785 420.612 247.321 377.811 216.381 297.707Z" fill="black"/>
<ellipse cx="165.173" cy="302.411" rx="4.71935" ry="7.86559" fill="#FFD817"/>
<ellipse cx="185.624" cy="297.691" rx="4.71935" ry="7.86559" fill="#FFD817"/>
<path d="M221.636 597.845C219.562 626.353 197.015 664.581 186 680.131L320.767 661.989C331.134 648.167 355.885 610.026 371.953 568.041C392.039 515.559 346.036 507.136 340.853 506.488C335.67 505.84 325.951 482.515 351.868 437.809C377.784 393.102 227.467 367.185 250.144 426.794C251.987 431.639 186 454.655 186 519.447C186 584.239 224.227 562.209 221.636 597.845Z" fill="#1EFF00"/>
<ellipse cx="243.017" cy="457.44" rx="3.88752" ry="7.12712" fill="#FF0084"/>
<ellipse cx="259.863" cy="458.088" rx="3.88752" ry="6.4792" fill="#FF0084"/>
<path d="M135.258 498.629C81.8398 516.786 16.0521 621.403 -10.1645 671.442C53.1174 670.668 178.439 668.829 173.471 667.654C168.503 666.479 174.684 646.46 178.395 636.597C187.048 615.596 208.534 582.056 225.253 615.904C241.971 649.751 288.073 655.298 309.034 653.84C325.403 652.938 354.829 637.371 341.578 582.325C328.328 527.28 272.171 499.53 245.749 492.536C231.176 487.001 188.675 480.471 135.258 498.629Z" fill="#FFD817"/>
<ellipse cx="299.477" cy="618.289" rx="4.60888" ry="9.04472" fill="black"/>
<ellipse cx="317.912" cy="618.289" rx="4.60888" ry="9.04472" fill="black"/>
</svg>
