<svg width="396" height="546" viewBox="0 0 396 546" fill="none" xmlns="http://www.w3.org/2000/svg">
<mask id="mask0_70_39" style="mask-type:alpha" maskUnits="userSpaceOnUse" x="299" y="522" width="55" height="55">
<circle cx="326.5" cy="549.5" r="27.5" fill="#D9D9D9"/>
</mask>
<g mask="url(#mask0_70_39)">
<path d="M240.728 504.614C210.947 513.207 174.274 562.738 159.66 586.43C194.942 586.068 264.814 585.206 262.044 584.649C259.274 584.093 262.719 574.614 264.787 569.944C269.611 560.001 281.588 544.121 290.912 560.149C300.235 576.177 325.939 578.807 337.625 578.118C346.752 577.692 363.157 570.323 355.766 544.259C348.375 518.194 317.064 505.05 302.332 501.737C294.206 499.115 270.51 496.02 240.728 504.614Z" fill="#FFD817"/>
</g>
<mask id="mask1_70_39" style="mask-type:alpha" maskUnits="userSpaceOnUse" x="205" y="439" width="55" height="55">
<circle cx="232.5" cy="466.5" r="27.5" fill="#D9D9D9"/>
</mask>
<g mask="url(#mask1_70_39)">
<path d="M260.854 452.756C252.199 430.351 230.369 435.501 219.89 438.687L204.056 443.087C196.584 441.542 185.396 439.37 183.495 452.359C181.119 468.594 194.635 469.178 194.941 479.537C195.208 488.571 194.282 490.026 194.915 508.258L195.955 565.265L223.7 560.825L276.225 545.7L267.975 528.1C261.637 521.087 253.413 518.283 253.675 508.258C254.002 495.726 271.671 480.762 260.854 452.756Z" fill="black"/>
<ellipse cx="242.95" cy="454.4" rx="1.65" ry="2.75" fill="#FFD817"/>
<ellipse cx="250.1" cy="452.75" rx="1.65" ry="2.75" fill="#FFD817"/>
</g>
<mask id="mask2_70_39" style="mask-type:alpha" maskUnits="userSpaceOnUse" x="285" y="231" width="55" height="55">
<circle cx="312.5" cy="258.5" r="27.5" fill="#D9D9D9"/>
</mask>
<g mask="url(#mask2_70_39)">
<path d="M265.848 349.216C260.596 383.673 288.569 449.396 303.212 477.95H384C369.525 440.143 338.153 358.979 328.458 336.773C318.781 314.607 336.977 286.941 345.078 274.625L345.121 274.56C351.685 262.596 358.451 232.829 333.003 209.475C301.192 180.282 307.756 218.089 294.123 224.789C280.49 231.489 270.392 251.589 284.025 265.946C297.658 280.302 272.412 306.145 265.848 349.216Z" fill="#FF0084"/>
<ellipse cx="292.866" cy="247.758" rx="2.4411" ry="2.50209" fill="#1EFF00"/>
<ellipse cx="301.003" cy="247.758" rx="2.4411" ry="2.50209" fill="#1EFF00"/>
</g>
<mask id="mask3_70_39" style="mask-type:alpha" maskUnits="userSpaceOnUse" x="380" y="529" width="55" height="55">
<circle cx="407.5" cy="556.5" r="27.5" fill="#D9D9D9"/>
</mask>
<g mask="url(#mask3_70_39)">
<path d="M389.625 598.218C388.745 610.318 379.175 626.543 374.5 633.143L431.7 625.443C436.1 619.576 446.605 603.388 453.425 585.568C461.95 563.293 442.425 559.718 440.225 559.443C438.025 559.168 433.9 549.268 444.9 530.293C455.9 511.318 392.1 500.318 401.725 525.618C402.507 527.674 374.5 537.443 374.5 564.943C374.5 592.443 390.725 583.093 389.625 598.218Z" fill="#1EFF00"/>
</g>
<mask id="mask4_70_39" style="mask-type:alpha" maskUnits="userSpaceOnUse" x="207" y="304" width="55" height="55">
<path d="M262 331.5C262 346.688 249.688 359 234.5 359C219.312 359 207 346.688 207 331.5C207 316.312 219.312 304 234.5 304C249.688 304 262 316.312 262 331.5Z" fill="#D9D9D9"/>
</mask>
<g mask="url(#mask4_70_39)">
<path d="M142.431 293.032C132.127 325.614 159.32 319.665 176.545 322.968L194.478 327.323C202.833 331.848 208.006 346.933 209.266 363C210.659 380.753 198.591 398.854 190.121 407.209H274.361C268.443 393.633 257.443 361.956 260.785 343.854C264.962 321.228 298.032 312.525 302.905 288.158C306.804 268.664 302.032 246.215 296.81 236.816C294.025 230.203 283.83 222.089 270.184 226.544C256.538 231 255.448 248.591 256.608 256.829C255.912 268.897 251.804 293.032 240.943 293.032C230.083 293.032 215.3 284.445 209.266 280.152C191.281 270.869 152.735 260.449 142.431 293.032Z" fill="#0B70FE"/>
<ellipse cx="239.721" cy="324.538" rx="2.08861" ry="2.43671" fill="black"/>
<ellipse cx="232.063" cy="327.323" rx="2.08861" ry="2.43671" fill="black"/>
</g>
<mask id="mask5_70_39" style="mask-type:alpha" maskUnits="userSpaceOnUse" x="320" y="494" width="55" height="55">
<circle cx="347.5" cy="521.5" r="27.5" fill="#D9D9D9"/>
</mask>
<g mask="url(#mask5_70_39)">
<path d="M329.625 563.218C328.745 575.318 319.175 591.543 314.5 598.143L371.7 590.443C376.1 584.576 386.605 568.388 393.425 550.568C401.95 528.293 382.425 524.718 380.225 524.443C378.025 524.168 373.9 514.268 384.9 495.293C395.9 476.318 332.1 465.318 341.725 490.618C342.507 492.674 314.5 502.443 314.5 529.943C314.5 557.443 330.725 548.093 329.625 563.218Z" fill="#1EFF00"/>
<ellipse cx="338.7" cy="503.625" rx="1.65" ry="3.025" fill="#FF0084"/>
<ellipse cx="345.85" cy="503.9" rx="1.65" ry="2.75" fill="#FF0084"/>
</g>
<mask id="mask6_70_39" style="mask-type:alpha" maskUnits="userSpaceOnUse" x="293" y="460" width="55" height="55">
<circle cx="27.5" cy="27.5" r="27.5" transform="matrix(-1 0 0 1 348 460)" fill="#D9D9D9"/>
</mask>
<g mask="url(#mask6_70_39)">
<path d="M292.146 473.756C300.801 451.351 322.631 456.501 333.11 459.687L348.944 464.087C356.416 462.542 367.604 460.37 369.505 473.359C371.881 489.594 358.365 490.178 358.059 500.537C357.792 509.571 358.718 511.026 358.085 529.258L357.045 586.265L329.3 581.825L276.775 566.7L285.025 549.1C291.363 542.087 299.587 539.283 299.325 529.258C298.998 516.726 281.329 501.762 292.146 473.756Z" fill="black"/>
<ellipse cx="1.65" cy="2.75" rx="1.65" ry="2.75" transform="matrix(-1 0 0 1 311.7 472.65)" fill="#FFD817"/>
<ellipse cx="1.65" cy="2.75" rx="1.65" ry="2.75" transform="matrix(-1 0 0 1 304.55 471)" fill="#FFD817"/>
</g>
<mask id="mask7_70_39" style="mask-type:alpha" maskUnits="userSpaceOnUse" x="340" y="529" width="55" height="55">
<circle cx="367.5" cy="556.5" r="27.5" fill="#D9D9D9"/>
</mask>
<g mask="url(#mask7_70_39)">
<path d="M395.854 542.756C387.199 520.351 365.369 525.501 354.89 528.687L339.056 533.087C331.584 531.542 320.396 529.37 318.495 542.359C316.119 558.594 329.635 559.178 329.941 569.537C330.208 578.571 329.282 580.026 329.915 598.258L330.955 655.265L358.7 650.825L411.225 635.7L402.975 618.1C396.637 611.087 388.413 608.283 388.675 598.258C389.002 585.726 406.671 570.762 395.854 542.756Z" fill="black"/>
<ellipse cx="377.95" cy="544.4" rx="1.65" ry="2.75" fill="#FFD817"/>
<ellipse cx="385.1" cy="542.75" rx="1.65" ry="2.75" fill="#FFD817"/>
</g>
<mask id="mask8_70_39" style="mask-type:alpha" maskUnits="userSpaceOnUse" x="158" y="414" width="55" height="55">
<circle cx="185.5" cy="441.5" r="27.5" fill="#D9D9D9"/>
</mask>
<g mask="url(#mask8_70_39)">
<path d="M138.848 532.216C133.596 566.673 161.569 632.396 176.212 660.95H257C242.525 623.143 211.153 541.979 201.458 519.773C191.781 497.607 209.977 469.941 218.078 457.625L218.121 457.56C224.685 445.596 231.451 415.829 206.003 392.475C174.192 363.282 180.756 401.089 167.123 407.789C153.49 414.489 143.392 434.589 157.025 448.946C170.658 463.302 145.412 489.145 138.848 532.216Z" fill="#FF0084"/>
<ellipse cx="165.866" cy="430.758" rx="2.4411" ry="2.50209" fill="#1EFF00"/>
<ellipse cx="174.003" cy="430.758" rx="2.4411" ry="2.50209" fill="#1EFF00"/>
</g>
<mask id="mask9_70_39" style="mask-type:alpha" maskUnits="userSpaceOnUse" x="80" y="487" width="55" height="55">
<path d="M135 514.5C135 529.688 122.688 542 107.5 542C92.3122 542 80 529.688 80 514.5C80 499.312 92.3122 487 107.5 487C122.688 487 135 499.312 135 514.5Z" fill="#D9D9D9"/>
</mask>
<g mask="url(#mask9_70_39)">
<path d="M15.4308 476.032C5.127 508.614 32.32 502.665 49.5447 505.968L67.4782 510.323C75.8326 514.848 81.0061 529.933 82.2662 546C83.6586 563.753 71.5911 581.854 63.1207 590.209H147.361C141.443 576.633 130.443 544.956 133.785 526.854C137.962 504.228 171.032 495.525 175.905 471.158C179.804 451.664 175.032 429.215 169.81 419.816C167.025 413.203 156.83 405.089 143.184 409.544C129.538 414 128.448 431.591 129.608 439.829C128.912 451.897 124.804 476.032 113.943 476.032C103.083 476.032 88.3 467.445 82.2662 463.152C64.281 453.869 25.7346 443.449 15.4308 476.032Z" fill="#0B70FE"/>
<ellipse cx="112.721" cy="507.538" rx="2.08861" ry="2.43671" fill="black"/>
<ellipse cx="105.063" cy="510.323" rx="2.08861" ry="2.43671" fill="black"/>
</g>
<mask id="mask10_70_39" style="mask-type:alpha" maskUnits="userSpaceOnUse" x="264" y="0" width="55" height="55">
<circle cx="291.5" cy="27.5" r="27.5" fill="#D9D9D9"/>
</mask>
<g mask="url(#mask10_70_39)">
<path d="M205.728 -17.3862C175.947 -8.79259 139.274 40.7383 124.66 64.4296C159.942 64.068 229.814 63.2058 227.044 62.6492C224.274 62.0926 227.719 52.6139 229.787 47.9441C234.611 38.0009 246.588 22.1214 255.912 38.1494C265.235 54.1774 290.939 56.807 302.625 56.1183C311.752 55.6921 328.157 48.3234 320.766 22.2585C313.375 -3.80637 282.064 -16.9496 267.332 -20.2632C259.206 -22.8848 235.51 -25.9798 205.728 -17.3862Z" fill="#FFD817"/>
<ellipse cx="297.285" cy="39.2622" rx="2.56961" ry="4.28268" fill="black"/>
<ellipse cx="307.563" cy="39.2622" rx="2.56961" ry="4.28268" fill="black"/>
</g>
<mask id="mask11_70_39" style="mask-type:alpha" maskUnits="userSpaceOnUse" x="137" y="183" width="55" height="55">
<circle cx="164.5" cy="210.5" r="27.5" fill="#D9D9D9"/>
</mask>
<g mask="url(#mask11_70_39)">
<path d="M192.854 196.756C184.199 174.351 162.369 179.501 151.89 182.687L136.056 187.087C128.584 185.542 117.396 183.37 115.495 196.359C113.119 212.594 126.635 213.178 126.941 223.537C127.208 232.571 126.282 234.026 126.915 252.258L127.955 309.265L155.7 304.825L208.225 289.7L199.975 272.1C193.637 265.087 185.413 262.283 185.675 252.258C186.002 239.726 203.671 224.762 192.854 196.756Z" fill="black"/>
<ellipse cx="174.95" cy="198.4" rx="1.65" ry="2.75" fill="#FFD817"/>
<ellipse cx="182.1" cy="196.75" rx="1.65" ry="2.75" fill="#FFD817"/>
</g>
<mask id="mask12_70_39" style="mask-type:alpha" maskUnits="userSpaceOnUse" x="150" y="130" width="55" height="55">
<circle cx="177.5" cy="157.5" r="27.5" fill="#D9D9D9"/>
</mask>
<g mask="url(#mask12_70_39)">
<path d="M130.848 248.216C125.596 282.673 153.569 348.396 168.212 376.95H249C234.525 339.143 203.153 257.979 193.458 235.773C183.781 213.607 201.977 185.941 210.078 173.625L210.121 173.56C216.685 161.596 223.451 131.829 198.003 108.475C166.192 79.2823 172.756 117.089 159.123 123.789C145.49 130.489 135.392 150.589 149.025 164.946C162.658 179.302 137.412 205.145 130.848 248.216Z" fill="#FF0084"/>
<ellipse cx="157.866" cy="146.758" rx="2.4411" ry="2.50209" fill="#1EFF00"/>
<ellipse cx="166.003" cy="146.758" rx="2.4411" ry="2.50209" fill="#1EFF00"/>
</g>
<mask id="mask13_70_39" style="mask-type:alpha" maskUnits="userSpaceOnUse" x="112" y="298" width="55" height="55">
<circle cx="139.5" cy="325.5" r="27.5" fill="#D9D9D9"/>
</mask>
<g mask="url(#mask13_70_39)">
<path d="M121.625 367.218C120.745 379.318 111.175 395.543 106.5 402.143L163.7 394.443C168.1 388.576 178.605 372.388 185.425 354.568C193.95 332.293 174.425 328.718 172.225 328.443C170.025 328.168 165.9 318.268 176.9 299.293C187.9 280.318 124.1 269.318 133.725 294.618C134.507 296.674 106.5 306.443 106.5 333.943C106.5 361.443 122.725 352.093 121.625 367.218Z" fill="#1EFF00"/>
<ellipse cx="130.7" cy="307.625" rx="1.65" ry="3.025" fill="#FF0084"/>
<ellipse cx="137.85" cy="307.9" rx="1.65" ry="2.75" fill="#FF0084"/>
</g>
<mask id="mask14_70_39" style="mask-type:alpha" maskUnits="userSpaceOnUse" x="72" y="203" width="55" height="55">
<path d="M127 230.5C127 245.688 114.688 258 99.5 258C84.3122 258 72 245.688 72 230.5C72 215.312 84.3122 203 99.5 203C114.688 203 127 215.312 127 230.5Z" fill="#D9D9D9"/>
</mask>
<g mask="url(#mask14_70_39)">
<path d="M7.43079 192.032C-2.873 224.614 24.32 218.665 41.5447 221.968L59.4782 226.323C67.8326 230.848 73.0061 245.933 74.2662 262C75.6586 279.753 63.5911 297.854 55.1207 306.209H139.361C133.443 292.633 122.443 260.956 125.785 242.854C129.962 220.228 163.032 211.525 167.905 187.158C171.804 167.664 167.032 145.215 161.81 135.816C159.025 129.203 148.83 121.089 135.184 125.544C121.538 130 120.448 147.591 121.608 155.829C120.912 167.897 116.804 192.032 105.943 192.032C95.0827 192.032 80.3 183.445 74.2662 179.152C56.281 169.869 17.7346 159.449 7.43079 192.032Z" fill="#0B70FE"/>
<ellipse cx="104.721" cy="223.538" rx="2.08861" ry="2.43671" fill="black"/>
<ellipse cx="97.0632" cy="226.323" rx="2.08861" ry="2.43671" fill="black"/>
</g>
<mask id="mask15_70_39" style="mask-type:alpha" maskUnits="userSpaceOnUse" x="219" y="176" width="55" height="55">
<circle cx="246.5" cy="203.5" r="27.5" fill="#D9D9D9"/>
</mask>
<g mask="url(#mask15_70_39)">
<path d="M160.728 158.614C130.947 167.207 94.2738 216.738 79.6599 240.43C114.942 240.068 184.814 239.206 182.044 238.649C179.274 238.093 182.719 228.614 184.787 223.944C189.611 214.001 201.588 198.121 210.912 214.149C220.235 230.177 245.939 232.807 257.625 232.118C266.752 231.692 283.157 224.323 275.766 198.259C268.375 172.194 237.064 159.05 222.332 155.737C214.206 153.115 190.51 150.02 160.728 158.614Z" fill="#FFD817"/>
<ellipse cx="252.285" cy="215.262" rx="2.56961" ry="4.28268" fill="black"/>
<ellipse cx="262.563" cy="215.262" rx="2.56961" ry="4.28268" fill="black"/>
</g>
<mask id="mask16_70_39" style="mask-type:alpha" maskUnits="userSpaceOnUse" x="86" y="421" width="55" height="55">
<circle cx="27.5" cy="27.5" r="27.5" transform="matrix(-1 0 0 1 141 421)" fill="#D9D9D9"/>
</mask>
<g mask="url(#mask16_70_39)">
<path d="M199.272 403.614C229.053 412.207 265.726 461.738 280.34 485.43C245.058 485.068 175.186 484.206 177.956 483.649C180.726 483.093 177.281 473.614 175.213 468.944C170.389 459.001 158.412 443.121 149.088 459.149C139.765 475.177 114.061 477.807 102.375 477.118C93.2481 476.692 76.843 469.323 84.2341 443.259C91.6252 417.194 122.936 404.05 137.668 400.737C145.794 398.115 169.49 395.02 199.272 403.614Z" fill="#FFD817"/>
<ellipse cx="2.56961" cy="4.28268" rx="2.56961" ry="4.28268" transform="matrix(-1 0 0 1 110.285 455.979)" fill="black"/>
<ellipse cx="2.56961" cy="4.28268" rx="2.56961" ry="4.28268" transform="matrix(-1 0 0 1 100.006 455.979)" fill="black"/>
</g>
<mask id="mask17_70_39" style="mask-type:alpha" maskUnits="userSpaceOnUse" x="5" y="428" width="55" height="55">
<circle cx="27.5" cy="27.5" r="27.5" transform="matrix(-1 0 0 1 60 428)" fill="#D9D9D9"/>
</mask>
<g mask="url(#mask17_70_39)">
<path d="M50.375 497.218C51.255 509.318 60.825 525.543 65.5 532.143L8.3 524.443C3.9 518.576 -6.605 502.388 -13.425 484.568C-21.95 462.293 -2.425 458.718 -0.224998 458.443C1.975 458.168 6.1 448.268 -4.9 429.293C-15.9 410.318 47.9 399.318 38.275 424.618C37.4927 426.674 65.5 436.443 65.5 463.943C65.5 491.443 49.275 482.093 50.375 497.218Z" fill="#1EFF00"/>
<ellipse cx="1.65" cy="3.025" rx="1.65" ry="3.025" transform="matrix(-1 0 0 1 42.95 434.6)" fill="#FF0084"/>
<ellipse cx="1.65" cy="2.75" rx="1.65" ry="2.75" transform="matrix(-1 0 0 1 35.8 435.15)" fill="#FF0084"/>
</g>
<mask id="mask18_70_39" style="mask-type:alpha" maskUnits="userSpaceOnUse" x="65" y="393" width="55" height="55">
<circle cx="27.5" cy="27.5" r="27.5" transform="matrix(-1 0 0 1 120 393)" fill="#D9D9D9"/>
</mask>
<g mask="url(#mask18_70_39)">
<path d="M110.375 462.218C111.255 474.318 120.825 490.543 125.5 497.143L68.3 489.443C63.9 483.576 53.395 467.388 46.575 449.568C38.05 427.293 57.575 423.718 59.775 423.443C61.975 423.168 66.1 413.268 55.1 394.293C44.1 375.318 107.9 364.318 98.275 389.618C97.4927 391.674 125.5 401.443 125.5 428.943C125.5 456.443 109.275 447.093 110.375 462.218Z" fill="#1EFF00"/>
<ellipse cx="1.65" cy="3.025" rx="1.65" ry="3.025" transform="matrix(-1 0 0 1 102.95 399.6)" fill="#FF0084"/>
<ellipse cx="1.65" cy="2.75" rx="1.65" ry="2.75" transform="matrix(-1 0 0 1 95.8 400.15)" fill="#FF0084"/>
</g>
<mask id="mask19_70_39" style="mask-type:alpha" maskUnits="userSpaceOnUse" x="92" y="359" width="55" height="55">
<circle cx="119.5" cy="386.5" r="27.5" fill="#D9D9D9"/>
</mask>
<g mask="url(#mask19_70_39)">
<path d="M147.854 372.756C139.199 350.351 117.369 355.501 106.89 358.687L91.0556 363.087C83.5838 361.542 72.3961 359.37 70.4952 372.359C68.1192 388.594 81.6348 389.178 81.9408 399.537C82.2076 408.571 81.2823 410.026 81.9152 428.258L82.9549 485.265L110.7 480.825L163.225 465.7L154.975 448.1C148.637 441.087 140.413 438.283 140.675 428.258C141.002 415.726 158.671 400.762 147.854 372.756Z" fill="black"/>
<ellipse cx="129.95" cy="374.4" rx="1.65" ry="2.75" fill="#FFD817"/>
<ellipse cx="137.1" cy="372.75" rx="1.65" ry="2.75" fill="#FFD817"/>
</g>
<mask id="mask20_70_39" style="mask-type:alpha" maskUnits="userSpaceOnUse" x="45" y="428" width="55" height="55">
<circle cx="27.5" cy="27.5" r="27.5" transform="matrix(-1 0 0 1 100 428)" fill="#D9D9D9"/>
</mask>
<g mask="url(#mask20_70_39)">
<path d="M44.1465 441.756C52.8006 419.351 74.6314 424.501 85.1103 427.687L100.944 432.087C108.416 430.542 119.604 428.37 121.505 441.359C123.881 457.594 110.365 458.178 110.059 468.537C109.792 477.571 110.718 479.026 110.085 497.258L109.045 554.265L81.2999 549.825L28.7749 534.7L37.0249 517.1C43.3631 510.087 51.5868 507.283 51.3249 497.258C50.9976 484.726 33.3288 469.762 44.1465 441.756Z" fill="black"/>
<ellipse cx="1.65" cy="2.75" rx="1.65" ry="2.75" transform="matrix(-1 0 0 1 63.7 440.65)" fill="#FFD817"/>
<ellipse cx="1.65" cy="2.75" rx="1.65" ry="2.75" transform="matrix(-1 0 0 1 56.5498 439)" fill="#FFD817"/>
</g>
<mask id="mask21_70_39" style="mask-type:alpha" maskUnits="userSpaceOnUse" x="305" y="386" width="55" height="55">
<path d="M305 413.5C305 428.688 317.312 441 332.5 441C347.688 441 360 428.688 360 413.5C360 398.312 347.688 386 332.5 386C317.312 386 305 398.312 305 413.5Z" fill="#D9D9D9"/>
</mask>
<g mask="url(#mask21_70_39)">
<path d="M424.569 375.032C434.873 407.614 407.68 401.665 390.455 404.968L372.522 409.323C364.167 413.848 358.994 428.933 357.734 445C356.341 462.753 368.409 480.854 376.879 489.209H292.639C298.557 475.633 309.557 443.956 306.215 425.854C302.038 403.228 268.968 394.525 264.095 370.158C260.196 350.664 264.968 328.215 270.19 318.816C272.975 312.203 283.17 304.089 296.816 308.544C310.462 313 311.552 330.591 310.392 338.829C311.088 350.897 315.196 375.032 326.057 375.032C336.917 375.032 351.7 366.445 357.734 362.152C375.719 352.869 414.265 342.449 424.569 375.032Z" fill="#0B70FE"/>
<ellipse cx="2.08861" cy="2.43671" rx="2.08861" ry="2.43671" transform="matrix(-1 0 0 1 329.367 404.101)" fill="black"/>
<ellipse cx="2.08861" cy="2.43671" rx="2.08861" ry="2.43671" transform="matrix(-1 0 0 1 337.025 406.886)" fill="black"/>
</g>
<mask id="mask22_70_39" style="mask-type:alpha" maskUnits="userSpaceOnUse" x="0" y="473" width="55" height="55">
<circle cx="27.5" cy="500.5" r="27.5" fill="#D9D9D9"/>
</mask>
<g mask="url(#mask22_70_39)">
<path d="M-19.1524 591.216C-24.4037 625.673 3.56916 691.396 18.212 719.95H98.9999C84.5254 682.143 53.1528 600.979 43.4582 578.773C33.7808 556.607 51.9773 528.941 60.0777 516.625L60.1208 516.56C66.6848 504.596 73.4508 474.829 48.0026 451.475C16.1923 422.282 22.7563 460.089 9.12336 466.789C-4.50961 473.489 -14.6081 493.589 -0.975134 507.946C12.6578 522.302 -12.5884 548.145 -19.1524 591.216Z" fill="#FF0084"/>
<ellipse cx="7.86566" cy="489.758" rx="2.4411" ry="2.50209" fill="#1EFF00"/>
<ellipse cx="16.0026" cy="489.758" rx="2.4411" ry="2.50209" fill="#1EFF00"/>
</g>
<mask id="mask23_70_39" style="mask-type:alpha" maskUnits="userSpaceOnUse" x="123" y="386" width="55" height="55">
<circle cx="27.5" cy="27.5" r="27.5" transform="matrix(-1 0 0 1 178 386)" fill="#D9D9D9"/>
</mask>
<g mask="url(#mask23_70_39)">
<path d="M197.152 504.216C202.404 538.673 174.431 604.396 159.788 632.95H79.0001C93.4746 595.143 124.847 513.979 134.542 491.773C144.219 469.607 126.023 441.941 117.922 429.625L117.879 429.56C111.315 417.596 104.549 387.829 129.997 364.475C161.808 335.282 155.244 373.089 168.877 379.789C182.51 386.489 192.608 406.589 178.975 420.946C165.342 435.302 190.588 461.145 197.152 504.216Z" fill="#FF0084"/>
<ellipse cx="2.4411" cy="2.50209" rx="2.4411" ry="2.50209" transform="matrix(-1 0 0 1 172.575 400.256)" fill="#1EFF00"/>
<ellipse cx="2.4411" cy="2.50209" rx="2.4411" ry="2.50209" transform="matrix(-1 0 0 1 164.438 400.256)" fill="#1EFF00"/>
</g>
<mask id="mask24_70_39" style="mask-type:alpha" maskUnits="userSpaceOnUse" x="252" y="428" width="55" height="55">
<circle cx="27.5" cy="27.5" r="27.5" transform="matrix(-1 0 0 1 307 428)" fill="#D9D9D9"/>
</mask>
<g mask="url(#mask24_70_39)">
<path d="M297.375 497.218C298.255 509.318 307.825 525.543 312.5 532.143L255.3 524.443C250.9 518.576 240.395 502.388 233.575 484.568C225.05 462.293 244.575 458.718 246.775 458.443C248.975 458.168 253.1 448.268 242.1 429.293C231.1 410.318 294.9 399.318 285.275 424.618C284.493 426.674 312.5 436.443 312.5 463.943C312.5 491.443 296.275 482.093 297.375 497.218Z" fill="#1EFF00"/>
<ellipse cx="1.65" cy="3.025" rx="1.65" ry="3.025" transform="matrix(-1 0 0 1 289.95 434.6)" fill="#FF0084"/>
<ellipse cx="1.65" cy="2.75" rx="1.65" ry="2.75" transform="matrix(-1 0 0 1 282.8 435.15)" fill="#FF0084"/>
</g>
<mask id="mask25_70_39" style="mask-type:alpha" maskUnits="userSpaceOnUse" x="177" y="372" width="55" height="55">
<path d="M177 399.5C177 414.688 189.312 427 204.5 427C219.688 427 232 414.688 232 399.5C232 384.312 219.688 372 204.5 372C189.312 372 177 384.312 177 399.5Z" fill="#D9D9D9"/>
</mask>
<g mask="url(#mask25_70_39)">
<path d="M296.569 361.032C306.873 393.614 279.68 387.665 262.455 390.968L244.522 395.323C236.167 399.848 230.994 414.933 229.734 431C228.341 448.753 240.409 466.854 248.879 475.209H164.639C170.557 461.633 181.557 429.956 178.215 411.854C174.038 389.228 140.968 380.525 136.095 356.158C132.196 336.664 136.968 314.215 142.19 304.816C144.975 298.203 155.17 290.089 168.816 294.544C182.462 299 183.552 316.591 182.392 324.829C183.088 336.897 187.196 361.032 198.057 361.032C208.917 361.032 223.7 352.445 229.734 348.152C247.719 338.869 286.265 328.449 296.569 361.032Z" fill="#0B70FE"/>
<ellipse cx="2.08861" cy="2.43671" rx="2.08861" ry="2.43671" transform="matrix(-1 0 0 1 201.367 390.101)" fill="black"/>
<ellipse cx="2.08861" cy="2.43671" rx="2.08861" ry="2.43671" transform="matrix(-1 0 0 1 209.025 392.886)" fill="black"/>
</g>
<mask id="mask26_70_39" style="mask-type:alpha" maskUnits="userSpaceOnUse" x="67" y="474" width="55" height="55">
<circle cx="94.5" cy="501.5" r="27.5" fill="#D9D9D9"/>
</mask>
<g mask="url(#mask26_70_39)">
<path d="M76.625 543.218C75.745 555.318 66.175 571.543 61.5 578.143L118.7 570.443C123.1 564.576 133.605 548.388 140.425 530.568C148.95 508.293 129.425 504.718 127.225 504.443C125.025 504.168 120.9 494.268 131.9 475.293C142.9 456.318 79.1 445.318 88.725 470.618C89.5073 472.674 61.5 482.443 61.5 509.943C61.5 537.443 77.725 528.093 76.625 543.218Z" fill="#1EFF00"/>
<ellipse cx="85.7001" cy="483.625" rx="1.65" ry="3.025" fill="#FF0084"/>
<ellipse cx="92.85" cy="483.9" rx="1.65" ry="2.75" fill="#FF0084"/>
</g>
<mask id="mask27_70_39" style="mask-type:alpha" maskUnits="userSpaceOnUse" x="213" y="401" width="55" height="55">
<circle cx="27.5" cy="27.5" r="27.5" transform="matrix(-1 0 0 1 268 401)" fill="#D9D9D9"/>
</mask>
<g mask="url(#mask27_70_39)">
<path d="M326.272 383.614C356.053 392.207 392.726 441.738 407.34 465.43C372.058 465.068 302.186 464.206 304.956 463.649C307.726 463.093 304.281 453.614 302.213 448.944C297.389 439.001 285.412 423.121 276.088 439.149C266.765 455.177 241.061 457.807 229.375 457.118C220.248 456.692 203.843 449.323 211.234 423.259C218.625 397.194 249.936 384.05 264.668 380.737C272.794 378.115 296.49 375.02 326.272 383.614Z" fill="#FFD817"/>
<ellipse cx="2.56961" cy="4.28268" rx="2.56961" ry="4.28268" transform="matrix(-1 0 0 1 237.285 435.979)" fill="black"/>
<ellipse cx="2.56961" cy="4.28268" rx="2.56961" ry="4.28268" transform="matrix(-1 0 0 1 227.006 435.979)" fill="black"/>
</g>
<mask id="mask28_70_39" style="mask-type:alpha" maskUnits="userSpaceOnUse" x="164" y="476" width="55" height="55">
<circle cx="27.5" cy="27.5" r="27.5" transform="matrix(-1 0 0 1 219 476)" fill="#D9D9D9"/>
</mask>
<g mask="url(#mask28_70_39)">
<path d="M163.146 489.756C171.801 467.351 193.631 472.501 204.11 475.687L219.944 480.087C227.416 478.542 238.604 476.37 240.505 489.359C242.881 505.594 229.365 506.178 229.059 516.537C228.792 525.571 229.718 527.026 229.085 545.258L228.045 602.265L200.3 597.825L147.775 582.7L156.025 565.1C162.363 558.087 170.587 555.283 170.325 545.258C169.998 532.726 152.329 517.762 163.146 489.756Z" fill="black"/>
<ellipse cx="1.65" cy="2.75" rx="1.65" ry="2.75" transform="matrix(-1 0 0 1 182.7 488.65)" fill="#FFD817"/>
<ellipse cx="1.65" cy="2.75" rx="1.65" ry="2.75" transform="matrix(-1 0 0 1 175.55 487)" fill="#FFD817"/>
</g>
<mask id="mask29_70_39" style="mask-type:alpha" maskUnits="userSpaceOnUse" x="123" y="461" width="55" height="55">
<circle cx="27.5" cy="27.5" r="27.5" transform="matrix(-1 0 0 1 178 461)" fill="#D9D9D9"/>
</mask>
<g mask="url(#mask29_70_39)">
<path d="M197.152 579.216C202.404 613.673 174.431 679.396 159.788 707.95H79.0001C93.4746 670.143 124.847 588.979 134.542 566.773C144.219 544.607 126.023 516.941 117.922 504.625L117.879 504.56C111.315 492.596 104.549 462.829 129.997 439.475C161.808 410.282 155.244 448.089 168.877 454.789C182.51 461.489 192.608 481.589 178.975 495.946C165.342 510.302 190.588 536.145 197.152 579.216Z" fill="#FF0084"/>
<ellipse cx="2.4411" cy="2.50209" rx="2.4411" ry="2.50209" transform="matrix(-1 0 0 1 172.575 475.256)" fill="#1EFF00"/>
<ellipse cx="2.4411" cy="2.50209" rx="2.4411" ry="2.50209" transform="matrix(-1 0 0 1 164.438 475.256)" fill="#1EFF00"/>
</g>
<mask id="mask30_70_39" style="mask-type:alpha" maskUnits="userSpaceOnUse" x="330" y="501" width="55" height="55">
<path d="M330 528.5C330 543.688 342.312 556 357.5 556C372.688 556 385 543.688 385 528.5C385 513.312 372.688 501 357.5 501C342.312 501 330 513.312 330 528.5Z" fill="#D9D9D9"/>
</mask>
<g mask="url(#mask30_70_39)">
<path d="M449.569 490.032C459.873 522.614 432.68 516.665 415.455 519.968L397.522 524.323C389.167 528.848 383.994 543.933 382.734 560C381.341 577.753 393.409 595.854 401.879 604.209H317.639C323.557 590.633 334.557 558.956 331.215 540.854C327.038 518.228 293.968 509.525 289.095 485.158C285.196 465.664 289.968 443.215 295.19 433.816C297.975 427.203 308.17 419.089 321.816 423.544C335.462 428 336.552 445.591 335.392 453.829C336.088 465.897 340.196 490.032 351.057 490.032C361.917 490.032 376.7 481.445 382.734 477.152C400.719 467.869 439.265 457.449 449.569 490.032Z" fill="#0B70FE"/>
<ellipse cx="2.08861" cy="2.43671" rx="2.08861" ry="2.43671" transform="matrix(-1 0 0 1 354.367 519.101)" fill="black"/>
<ellipse cx="2.08861" cy="2.43671" rx="2.08861" ry="2.43671" transform="matrix(-1 0 0 1 362.025 521.886)" fill="black"/>
</g>
<mask id="mask31_70_39" style="mask-type:alpha" maskUnits="userSpaceOnUse" x="27" y="379" width="55" height="55">
<path d="M82 406.5C82 421.688 69.6878 434 54.5 434C39.3122 434 27 421.688 27 406.5C27 391.312 39.3122 379 54.5 379C69.6878 379 82 391.312 82 406.5Z" fill="#D9D9D9"/>
</mask>
<g mask="url(#mask31_70_39)">
<path d="M-37.5692 368.032C-47.873 400.614 -20.68 394.665 -3.45528 397.968L14.4782 402.323C22.8326 406.848 28.0061 421.933 29.2662 438C30.6586 455.753 18.5911 473.854 10.1207 482.209H94.3612C88.4435 468.633 77.4435 436.956 80.7852 418.854C84.9624 396.228 118.032 387.525 122.905 363.158C126.804 343.664 122.032 321.215 116.81 311.816C114.025 305.203 103.83 297.089 90.184 301.544C76.5384 306 75.4477 323.591 76.608 331.829C75.9118 343.897 71.8042 368.032 60.9435 368.032C50.0827 368.032 35.3 359.445 29.2662 355.152C11.281 345.869 -27.2654 335.449 -37.5692 368.032Z" fill="#0B70FE"/>
<ellipse cx="59.7214" cy="399.538" rx="2.08861" ry="2.43671" fill="black"/>
<ellipse cx="52.0632" cy="402.323" rx="2.08861" ry="2.43671" fill="black"/>
</g>
<mask id="mask32_70_39" style="mask-type:alpha" maskUnits="userSpaceOnUse" x="18" y="256" width="55" height="55">
<circle cx="27.5" cy="27.5" r="27.5" transform="matrix(-1 0 0 1 73 256)" fill="#D9D9D9"/>
</mask>
<g mask="url(#mask32_70_39)">
<path d="M131.272 238.614C161.053 247.207 197.726 296.738 212.34 320.43C177.058 320.068 107.186 319.206 109.956 318.649C112.726 318.093 109.281 308.614 107.213 303.944C102.389 294.001 90.4116 278.121 81.0884 294.149C71.7652 310.177 46.0612 312.807 34.3746 312.118C25.2481 311.692 8.84304 304.323 16.2341 278.259C23.6252 252.194 54.9364 239.05 69.6681 235.737C77.7936 233.115 101.49 230.02 131.272 238.614Z" fill="#FFD817"/>
<ellipse cx="2.56961" cy="4.28268" rx="2.56961" ry="4.28268" transform="matrix(-1 0 0 1 42.2849 290.979)" fill="black"/>
<ellipse cx="2.56961" cy="4.28268" rx="2.56961" ry="4.28268" transform="matrix(-1 0 0 1 32.0063 290.979)" fill="black"/>
</g>
<mask id="mask33_70_39" style="mask-type:alpha" maskUnits="userSpaceOnUse" x="305" y="386" width="55" height="55">
<circle cx="27.5" cy="27.5" r="27.5" transform="matrix(-1 0 0 1 360 386)" fill="#D9D9D9"/>
</mask>
<g mask="url(#mask33_70_39)">
<path d="M304.146 399.756C312.801 377.351 334.631 382.501 345.11 385.687L360.944 390.087C368.416 388.542 379.604 386.37 381.505 399.359C383.881 415.594 370.365 416.178 370.059 426.537C369.792 435.571 370.718 437.026 370.085 455.258L369.045 512.265L341.3 507.825L288.775 492.7L297.025 475.1C303.363 468.087 311.587 465.283 311.325 455.258C310.998 442.726 293.329 427.762 304.146 399.756Z" fill="black"/>
<ellipse cx="1.65" cy="2.75" rx="1.65" ry="2.75" transform="matrix(-1 0 0 1 323.7 398.65)" fill="#FFD817"/>
<ellipse cx="1.65" cy="2.75" rx="1.65" ry="2.75" transform="matrix(-1 0 0 1 316.55 397)" fill="#FFD817"/>
</g>
<mask id="mask34_70_39" style="mask-type:alpha" maskUnits="userSpaceOnUse" x="330" y="501" width="55" height="55">
<circle cx="27.5" cy="27.5" r="27.5" transform="matrix(-1 0 0 1 385 501)" fill="#D9D9D9"/>
</mask>
<g mask="url(#mask34_70_39)">
<path d="M375.375 570.218C376.255 582.318 385.825 598.543 390.5 605.143L333.3 597.443C328.9 591.576 318.395 575.388 311.575 557.568C303.05 535.293 322.575 531.718 324.775 531.443C326.975 531.168 331.1 521.268 320.1 502.293C309.1 483.318 372.9 472.318 363.275 497.618C362.493 499.674 390.5 509.443 390.5 536.943C390.5 564.443 374.275 555.093 375.375 570.218Z" fill="#1EFF00"/>
<ellipse cx="1.65" cy="3.025" rx="1.65" ry="3.025" transform="matrix(-1 0 0 1 367.95 507.6)" fill="#FF0084"/>
<ellipse cx="1.65" cy="2.75" rx="1.65" ry="2.75" transform="matrix(-1 0 0 1 360.8 508.15)" fill="#FF0084"/>
</g>
<mask id="mask35_70_39" style="mask-type:alpha" maskUnits="userSpaceOnUse" x="370" y="406" width="55" height="55">
<path d="M370 433.5C370 448.688 382.312 461 397.5 461C412.688 461 425 448.688 425 433.5C425 418.312 412.688 406 397.5 406C382.312 406 370 418.312 370 433.5Z" fill="#D9D9D9"/>
</mask>
<g mask="url(#mask35_70_39)">
<path d="M489.569 395.032C499.873 427.614 472.68 421.665 455.455 424.968L437.522 429.323C429.167 433.848 423.994 448.933 422.734 465C421.341 482.753 433.409 500.854 441.879 509.209H357.639C363.557 495.633 374.557 463.956 371.215 445.854C367.038 423.228 333.968 414.525 329.095 390.158C325.196 370.664 329.968 348.215 335.19 338.816C337.975 332.203 348.17 324.089 361.816 328.544C375.462 333 376.552 350.591 375.392 358.829C376.088 370.897 380.196 395.032 391.057 395.032C401.917 395.032 416.7 386.445 422.734 382.152C440.719 372.869 479.265 362.449 489.569 395.032Z" fill="#0B70FE"/>
<ellipse cx="2.08861" cy="2.43671" rx="2.08861" ry="2.43671" transform="matrix(-1 0 0 1 394.367 424.101)" fill="black"/>
</g>
</svg>
