<svg width="55" height="55" viewBox="0 0 55 55" fill="none" xmlns="http://www.w3.org/2000/svg">
<mask id="mask0_3_690" style="mask-type:alpha" maskUnits="userSpaceOnUse" x="0" y="0" width="55" height="55">
<circle cx="27.5" cy="27.5" r="27.5" fill="#D9D9D9"/>
</mask>
<g mask="url(#mask0_3_690)">
<path d="M55.8535 13.7556C47.1994 -8.64921 25.3686 -3.49945 14.8897 -0.313471L-0.944444 4.08689C-8.4162 2.54221 -19.6039 0.370179 -21.5048 13.3586C-23.8808 29.594 -10.3652 30.1781 -10.0592 40.537C-9.79239 49.5706 -10.7177 51.0262 -10.0848 69.2577L-9.04506 126.265L18.7001 121.825L71.2251 106.7L62.9751 89.0999C56.6369 82.0867 48.4132 79.2833 48.6751 69.2577C49.0024 56.7258 66.6712 41.7616 55.8535 13.7556Z" fill="black"/>
<ellipse cx="37.9501" cy="15.3999" rx="1.65" ry="2.75" fill="#FFD817"/>
<ellipse cx="45.1002" cy="13.7499" rx="1.65" ry="2.75" fill="#FFD817"/>
</g>
</svg>
