<svg width="55" height="55" viewBox="0 0 55 55" fill="none" xmlns="http://www.w3.org/2000/svg">
<mask id="mask0_3_677" style="mask-type:alpha" maskUnits="userSpaceOnUse" x="0" y="0" width="55" height="55">
<path d="M55 27.5C55 42.6878 42.6878 55 27.5 55C12.3122 55 0 42.6878 0 27.5C0 12.3122 12.3122 0 27.5 0C42.6878 0 55 12.3122 55 27.5Z" fill="#D9D9D9"/>
</mask>
<g mask="url(#mask0_3_677)">
<path d="M-64.5692 -10.9684C-74.873 21.6138 -47.68 15.6646 -30.4553 18.9683L-12.5218 23.3228C-4.1674 27.8481 1.00613 42.9334 2.26624 58.9999C3.65865 76.7531 -8.40886 94.8543 -16.8793 103.209H67.3612C61.4435 89.6328 50.4435 57.9556 53.7852 39.8543C57.9624 17.2278 91.0321 8.52523 95.9055 -15.8419C99.8042 -35.3355 95.0316 -57.7848 89.8101 -67.1835C87.0253 -73.7975 76.8295 -81.9115 63.184 -77.4558C49.5384 -73.0001 48.4477 -55.4094 49.608 -47.171C48.9118 -35.1035 44.8042 -10.9684 33.9435 -10.9684C23.0827 -10.9684 8.3 -19.5549 2.26624 -23.8482C-15.719 -33.1309 -54.2654 -43.5507 -64.5692 -10.9684Z" fill="#0B70FE"/>
<ellipse cx="32.7215" cy="20.538" rx="2.08861" ry="2.43671" fill="black"/>
<ellipse cx="25.0633" cy="23.3228" rx="2.08861" ry="2.43671" fill="black"/>
</g>
</svg>
