<svg width="55" height="55" viewBox="0 0 55 55" fill="none" xmlns="http://www.w3.org/2000/svg">
<mask id="mask0_3_694" style="mask-type:alpha" maskUnits="userSpaceOnUse" x="0" y="0" width="55" height="55">
<circle cx="27.5" cy="27.5" r="27.5" fill="#D9D9D9"/>
</mask>
<g mask="url(#mask0_3_694)">
<path d="M-19.1524 118.216C-24.4037 152.673 3.56916 218.396 18.212 246.95H98.9999C84.5254 209.143 53.1528 127.979 43.4582 105.773C33.7808 83.6071 51.9773 55.9411 60.0777 43.6251L60.1208 43.5597C66.6848 31.5956 73.4508 1.82877 48.0026 -21.5252C16.1923 -50.7177 22.7563 -12.911 9.12336 -6.21113C-4.50961 0.488792 -14.6081 20.5885 -0.975134 34.9455C12.6578 49.3025 -12.5884 75.145 -19.1524 118.216Z" fill="#FF0084"/>
<ellipse cx="7.86566" cy="16.7577" rx="2.4411" ry="2.50209" fill="#1EFF00"/>
<ellipse cx="16.0027" cy="16.7577" rx="2.4411" ry="2.50209" fill="#1EFF00"/>
</g>
</svg>
