<svg width="55" height="55" viewBox="0 0 55 55" fill="none" xmlns="http://www.w3.org/2000/svg">
<mask id="mask0_3_683" style="mask-type:alpha" maskUnits="userSpaceOnUse" x="0" y="0" width="55" height="55">
<circle cx="27.5" cy="27.5" r="27.5" fill="#D9D9D9"/>
</mask>
<g mask="url(#mask0_3_683)">
<path d="M9.625 69.2177C8.745 81.3177 -0.825 97.5427 -5.5 104.143L51.7 96.4427C56.1 90.5761 66.605 74.3877 73.425 56.5677C81.95 34.2927 62.425 30.7177 60.225 30.4427C58.025 30.1677 53.9 20.2677 64.9 1.29273C75.9 -17.6823 12.1 -28.6823 21.725 -3.38227C22.5073 -1.32604 -5.5 8.44274 -5.5 35.9427C-5.5 63.4427 10.725 54.0927 9.625 69.2177Z" fill="#1EFF00"/>
<ellipse cx="18.7" cy="9.62498" rx="1.65" ry="3.025" fill="#FF0084"/>
<ellipse cx="25.85" cy="9.90002" rx="1.65" ry="2.75" fill="#FF0084"/>
</g>
</svg>
