<svg width="37" height="36" viewBox="0 0 37 36" fill="none" xmlns="http://www.w3.org/2000/svg">
<mask id="mask0_3_351" style="mask-type:alpha" maskUnits="userSpaceOnUse" x="0" y="0" width="37" height="36">
<rect x="0.5" width="36" height="36" fill="#D9D9D9"/>
</mask>
<g mask="url(#mask0_3_351)">
<path d="M3.5 36V30H33.5V36H3.5ZM9.5 24H11.6L23.3 12.3375L21.1625 10.2L9.5 21.9V24ZM6.5 27V20.625L23.3 3.8625C23.575 3.5875 23.8938 3.375 24.2563 3.225C24.6188 3.075 25 3 25.4 3C25.8 3 26.1875 3.075 26.5625 3.225C26.9375 3.375 27.275 3.6 27.575 3.9L29.6375 6C29.9375 6.275 30.1563 6.6 30.2938 6.975C30.4313 7.35 30.5 7.7375 30.5 8.1375C30.5 8.5125 30.4313 8.88125 30.2938 9.24375C30.1563 9.60625 29.9375 9.9375 29.6375 10.2375L12.875 27H6.5Z" fill="#1C1B1F"/>
</g>
</svg>
